<svg width="140" height="140" viewBox="0 0 140 140" version="1.1" xmlns="http://www.w3.org/2000/svg" xmlns:xlink="http://www.w3.org/1999/xlink">
<title>logo-subtract-black</title>
<desc>Created using Figma</desc>
<g id="Canvas" transform="translate(-62 104)">
<g id="logo-subtract-black">
<use xlink:href="#path0_fill" transform="translate(62 -104)"/>
</g>
</g>
<defs>
<path id="path0_fill" fill-rule="evenodd" d="M 140 0L 0 0L 0 140L 140 140L 140 0ZM 63.8125 59.9062L 42.5 59.9062L 42.5 21.5L 33.6875 21.5L 33.6875 67L 63.8125 67L 63.8125 59.9062ZM 104.685 55.6562C 105.456 53.1979 105.841 50.5104 105.841 47.5938L 105.841 40.9688C 105.841 38.0521 105.456 35.3646 104.685 32.9062C 103.914 30.4479 102.8 28.3333 101.341 26.5625C 99.8829 24.7708 98.1017 23.375 95.9975 22.375C 93.9142 21.375 91.5496 20.875 88.9037 20.875C 86.2787 20.875 83.9454 21.375 81.9037 22.375C 79.8829 23.375 78.1746 24.7708 76.7787 26.5625C 75.3829 28.3333 74.3204 30.4479 73.5912 32.9062C 72.8621 35.3646 72.4975 38.0521 72.4975 40.9688L 72.4975 47.5938C 72.4975 50.5104 72.8621 53.1979 73.5912 55.6562C 74.3204 58.0938 75.3829 60.2083 76.7787 62C 78.1746 63.7708 79.8933 65.1562 81.935 66.1562C 83.9767 67.1354 86.31 67.625 88.935 67.625C 91.56 67.625 93.9142 67.1354 95.9975 66.1562C 98.1017 65.1562 99.8829 63.7708 101.341 62C 102.8 60.2292 103.914 58.1146 104.685 55.6562ZM 96.4662 35.7812C 96.7787 37.3438 96.935 39.0521 96.935 40.9062L 96.935 47.5938C 96.935 49.4479 96.7787 51.1562 96.4662 52.7188C 96.1537 54.2812 95.6746 55.6354 95.0287 56.7812C 94.4037 57.9062 93.5808 58.7917 92.56 59.4375C 91.56 60.0833 90.3517 60.4062 88.935 60.4062C 87.4975 60.4062 86.2996 60.0833 85.3412 59.4375C 84.3829 58.7917 83.6121 57.8958 83.0287 56.75C 82.4454 55.6042 82.0287 54.25 81.7787 52.6875C 81.5287 51.125 81.4037 49.4271 81.4037 47.5938L 81.4037 40.9062C 81.4037 39.0521 81.5287 37.3438 81.7787 35.7812C 82.0287 34.2188 82.4454 32.875 83.0287 31.75C 83.6121 30.625 84.3829 29.75 85.3412 29.125C 86.2996 28.4792 87.4871 28.1562 88.9037 28.1562C 90.3412 28.1562 91.56 28.4792 92.56 29.125C 93.5808 29.75 94.4142 30.625 95.06 31.75C 95.7058 32.875 96.1746 34.2188 96.4662 35.7812ZM 62.0625 118.781C 63.0417 118.073 63.8125 117.375 64.375 116.688L 64.3438 98.75L 48.0625 98.75L 48.0625 105.312L 55.5938 105.312L 55.5625 113.562C 55.3333 113.833 54.9896 114.094 54.5312 114.344C 54.0938 114.573 53.5833 114.781 53 114.969C 52.4167 115.156 51.7917 115.302 51.125 115.406C 50.4583 115.51 49.7812 115.562 49.0938 115.562C 46.2188 115.542 44.0833 114.406 42.6875 112.156C 41.2917 109.885 40.5833 106.625 40.5625 102.375L 40.5625 96.125C 40.5625 93.9792 40.7708 92.0938 41.1875 90.4688C 41.6042 88.8229 42.1667 87.4479 42.875 86.3438C 43.5833 85.2396 44.4167 84.4062 45.375 83.8438C 46.3333 83.2604 47.375 82.9688 48.5 82.9688C 50.8333 82.9688 52.5521 83.5625 53.6562 84.75C 54.7812 85.9167 55.4896 87.6667 55.7812 90L 64.3438 90C 64.1146 87.8125 63.625 85.8438 62.875 84.0938C 62.1458 82.3438 61.125 80.8646 59.8125 79.6562C 58.5 78.4271 56.8854 77.4896 54.9688 76.8438C 53.0729 76.1979 50.8438 75.875 48.2812 75.875C 45.9271 75.875 43.7396 76.3333 41.7188 77.25C 39.7188 78.1667 37.9688 79.5 36.4688 81.25C 34.9896 83 33.8229 85.1354 32.9688 87.6562C 32.1354 90.1562 31.7188 93 31.7188 96.1875L 31.7188 102.375C 31.7188 105.562 32.1146 108.417 32.9062 110.938C 33.7188 113.438 34.8646 115.552 36.3438 117.281C 37.8229 119.01 39.6042 120.333 41.6875 121.25C 43.7708 122.167 46.1042 122.625 48.6875 122.625C 50.6042 122.625 52.3958 122.448 54.0625 122.094C 55.7292 121.74 57.2292 121.281 58.5625 120.719C 59.9167 120.135 61.0833 119.49 62.0625 118.781ZM 104.685 110.656C 105.456 108.198 105.841 105.51 105.841 102.594L 105.841 95.9688C 105.841 93.0521 105.456 90.3646 104.685 87.9062C 103.914 85.4479 102.8 83.3333 101.341 81.5625C 99.8829 79.7708 98.1017 78.375 95.9975 77.375C 93.9142 76.375 91.5496 75.875 88.9037 75.875C 86.2787 75.875 83.9454 76.375 81.9037 77.375C 79.8829 78.375 78.1746 79.7708 76.7787 81.5625C 75.3829 83.3333 74.3204 85.4479 73.5912 87.9062C 72.8621 90.3646 72.4975 93.0521 72.4975 95.9688L 72.4975 102.594C 72.4975 105.51 72.8621 108.198 73.5912 110.656C 74.3204 113.094 75.3829 115.208 76.7787 117C 78.1746 118.771 79.8933 120.156 81.935 121.156C 83.9767 122.135 86.31 122.625 88.935 122.625C 91.56 122.625 93.9142 122.135 95.9975 121.156C 98.1017 120.156 99.8829 118.771 101.341 117C 102.8 115.229 103.914 113.115 104.685 110.656ZM 96.4662 90.7812C 96.7787 92.3438 96.935 94.0521 96.935 95.9062L 96.935 102.594C 96.935 104.448 96.7787 106.156 96.4662 107.719C 96.1537 109.281 95.6746 110.635 95.0287 111.781C 94.4037 112.906 93.5808 113.792 92.56 114.438C 91.56 115.083 90.3517 115.406 88.935 115.406C 87.4975 115.406 86.2996 115.083 85.3412 114.438C 84.3829 113.792 83.6121 112.896 83.0287 111.75C 82.4454 110.604 82.0287 109.25 81.7787 107.688C 81.5287 106.125 81.4037 104.427 81.4037 102.594L 81.4037 95.9062C 81.4037 94.0521 81.5287 92.3438 81.7787 90.7812C 82.0287 89.2188 82.4454 87.875 83.0287 86.75C 83.6121 85.625 84.3829 84.75 85.3412 84.125C 86.2996 83.4792 87.4871 83.1562 88.9037 83.1562C 90.3412 83.1562 91.56 83.4792 92.56 84.125C 93.5808 84.75 94.4142 85.625 95.06 86.75C 95.7058 87.875 96.1746 89.2188 96.4662 90.7812Z"/>
</defs>
</svg>
