<svg width="140" height="140" viewBox="0 0 140 140" version="1.1" xmlns="http://www.w3.org/2000/svg" xmlns:xlink="http://www.w3.org/1999/xlink">
<title>logo-outline-white</title>
<desc>Created using Figma</desc>
<g id="Canvas" transform="translate(129 -93)">
<g id="logo-outline-white">
<g id="Rectangle">
<mask id="mask0_outline_ins">
<use xlink:href="#path0_fill" fill="white" transform="translate(-129 93)"/>
</mask>
<g mask="url(#mask0_outline_ins)">
<use xlink:href="#path1_stroke_2x" transform="translate(-129 93)" fill="#FFFFFF"/>
</g>
</g>
<g id="LO GO">
<use xlink:href="#path2_fill" transform="translate(-100 101)" fill="#FFFFFF"/>
</g>
</g>
</g>
<defs>
<path id="path0_fill" d="M 0 0L 140 0L 140 140L 0 140L 0 0Z"/>
<path id="path1_stroke_2x" d="M 0 0L 0 -5L -5 -5L -5 0L 0 0ZM 140 0L 145 0L 145 -5L 140 -5L 140 0ZM 140 140L 140 145L 145 145L 145 140L 140 140ZM 0 140L -5 140L -5 145L 0 145L 0 140ZM 0 5L 140 5L 140 -5L 0 -5L 0 5ZM 135 0L 135 140L 145 140L 145 0L 135 0ZM 140 135L 0 135L 0 145L 140 145L 140 135ZM 5 140L 5 0L -5 0L -5 140L 5 140Z"/>
<path id="path2_fill" d="M 13.5 51.9062L 34.8125 51.9062L 34.8125 59L 4.6875 59L 4.6875 13.5L 13.5 13.5L 13.5 51.9062ZM 76.8413 39.5938C 76.8413 42.5104 76.4558 45.1979 75.685 47.6562C 74.9142 50.1146 73.7996 52.2292 72.3413 54C 70.8829 55.7708 69.1017 57.1562 66.9975 58.1562C 64.9142 59.1354 62.56 59.625 59.935 59.625C 57.31 59.625 54.9767 59.1354 52.935 58.1562C 50.8933 57.1562 49.1746 55.7708 47.7788 54C 46.3829 52.2083 45.3204 50.0938 44.5913 47.6562C 43.8621 45.1979 43.4975 42.5104 43.4975 39.5938L 43.4975 32.9688C 43.4975 30.0521 43.8621 27.3646 44.5913 24.9062C 45.3204 22.4479 46.3829 20.3333 47.7788 18.5625C 49.1746 16.7708 50.8829 15.375 52.9038 14.375C 54.9454 13.375 57.2788 12.875 59.9038 12.875C 62.5496 12.875 64.9142 13.375 66.9975 14.375C 69.1017 15.375 70.8829 16.7708 72.3413 18.5625C 73.7996 20.3333 74.9142 22.4479 75.685 24.9062C 76.4558 27.3646 76.8413 30.0521 76.8413 32.9688L 76.8413 39.5938ZM 67.935 32.9062C 67.935 31.0521 67.7788 29.3438 67.4663 27.7812C 67.1746 26.2188 66.7058 24.875 66.06 23.75C 65.4142 22.625 64.5808 21.75 63.56 21.125C 62.56 20.4792 61.3413 20.1562 59.9038 20.1562C 58.4871 20.1562 57.2996 20.4792 56.3413 21.125C 55.3829 21.75 54.6121 22.625 54.0288 23.75C 53.4454 24.875 53.0288 26.2188 52.7788 27.7812C 52.5288 29.3438 52.4038 31.0521 52.4038 32.9062L 52.4038 39.5938C 52.4038 41.4271 52.5288 43.125 52.7788 44.6875C 53.0288 46.25 53.4454 47.6042 54.0288 48.75C 54.6121 49.8958 55.3829 50.7917 56.3413 51.4375C 57.2996 52.0833 58.4975 52.4062 59.935 52.4062C 61.3517 52.4062 62.56 52.0833 63.56 51.4375C 64.5808 50.7917 65.4038 49.9062 66.0288 48.7812C 66.6746 47.6354 67.1538 46.2812 67.4663 44.7188C 67.7788 43.1562 67.935 41.4479 67.935 39.5938L 67.935 32.9062ZM 35.375 108.688C 34.8125 109.375 34.0417 110.073 33.0625 110.781C 32.0833 111.49 30.9167 112.135 29.5625 112.719C 28.2292 113.281 26.7292 113.74 25.0625 114.094C 23.3958 114.448 21.6042 114.625 19.6875 114.625C 17.1042 114.625 14.7708 114.167 12.6875 113.25C 10.6042 112.333 8.82292 111.01 7.34375 109.281C 5.86458 107.552 4.71875 105.438 3.90625 102.938C 3.11458 100.417 2.71875 97.5625 2.71875 94.375L 2.71875 88.1875C 2.71875 85 3.13542 82.1562 3.96875 79.6562C 4.82292 77.1354 5.98958 75 7.46875 73.25C 8.96875 71.5 10.7188 70.1667 12.7188 69.25C 14.7396 68.3333 16.9271 67.875 19.2812 67.875C 21.8438 67.875 24.0729 68.1979 25.9688 68.8438C 27.8854 69.4896 29.5 70.4271 30.8125 71.6562C 32.125 72.8646 33.1458 74.3438 33.875 76.0938C 34.625 77.8438 35.1146 79.8125 35.3438 82L 26.7812 82C 26.4896 79.6667 25.7812 77.9167 24.6562 76.75C 23.5521 75.5625 21.8333 74.9688 19.5 74.9688C 18.375 74.9688 17.3333 75.2604 16.375 75.8438C 15.4167 76.4062 14.5833 77.2396 13.875 78.3438C 13.1667 79.4479 12.6042 80.8229 12.1875 82.4688C 11.7708 84.0938 11.5625 85.9792 11.5625 88.125L 11.5625 94.375C 11.5833 98.625 12.2917 101.885 13.6875 104.156C 15.0833 106.406 17.2188 107.542 20.0938 107.562C 20.7812 107.562 21.4583 107.51 22.125 107.406C 22.7917 107.302 23.4167 107.156 24 106.969C 24.5833 106.781 25.0938 106.573 25.5312 106.344C 25.9896 106.094 26.3333 105.833 26.5625 105.562L 26.5938 97.3125L 19.0625 97.3125L 19.0625 90.75L 35.3438 90.75L 35.375 108.688ZM 76.8413 94.5938C 76.8413 97.5104 76.4558 100.198 75.685 102.656C 74.9142 105.115 73.7996 107.229 72.3413 109C 70.8829 110.771 69.1017 112.156 66.9975 113.156C 64.9142 114.135 62.56 114.625 59.935 114.625C 57.31 114.625 54.9767 114.135 52.935 113.156C 50.8933 112.156 49.1746 110.771 47.7788 109C 46.3829 107.208 45.3204 105.094 44.5913 102.656C 43.8621 100.198 43.4975 97.5104 43.4975 94.5938L 43.4975 87.9688C 43.4975 85.0521 43.8621 82.3646 44.5913 79.9062C 45.3204 77.4479 46.3829 75.3333 47.7788 73.5625C 49.1746 71.7708 50.8829 70.375 52.9038 69.375C 54.9454 68.375 57.2788 67.875 59.9038 67.875C 62.5496 67.875 64.9142 68.375 66.9975 69.375C 69.1017 70.375 70.8829 71.7708 72.3413 73.5625C 73.7996 75.3333 74.9142 77.4479 75.685 79.9062C 76.4558 82.3646 76.8413 85.0521 76.8413 87.9688L 76.8413 94.5938ZM 67.935 87.9062C 67.935 86.0521 67.7788 84.3438 67.4663 82.7812C 67.1746 81.2188 66.7058 79.875 66.06 78.75C 65.4142 77.625 64.5808 76.75 63.56 76.125C 62.56 75.4792 61.3413 75.1562 59.9038 75.1562C 58.4871 75.1562 57.2996 75.4792 56.3413 76.125C 55.3829 76.75 54.6121 77.625 54.0288 78.75C 53.4454 79.875 53.0288 81.2188 52.7788 82.7812C 52.5288 84.3438 52.4038 86.0521 52.4038 87.9062L 52.4038 94.5938C 52.4038 96.4271 52.5288 98.125 52.7788 99.6875C 53.0288 101.25 53.4454 102.604 54.0288 103.75C 54.6121 104.896 55.3829 105.792 56.3413 106.438C 57.2996 107.083 58.4975 107.406 59.935 107.406C 61.3517 107.406 62.56 107.083 63.56 106.438C 64.5808 105.792 65.4038 104.906 66.0288 103.781C 66.6746 102.635 67.1538 101.281 67.4663 99.7188C 67.7788 98.1562 67.935 96.4479 67.935 94.5938L 67.935 87.9062Z"/>
</defs>
</svg>
